<svg xmlns="http://www.w3.org/2000/svg" viewBox="0 0 64 64" width="24" height="24">
<!--
  xmlns:dc="http://purl.org/dc/elements/1.1/" 
  xmlns:cc="http://creativecommons.org/ns#" 
  xmlns:rdf="http://www.w3.org/1999/02/22-rdf-syntax-ns#" 
  xmlns:svg="http://www.w3.org/2000/svg" 
  xmlns="http://www.w3.org/2000/svg" 
  xmlns:sodipodi="http://sodipodi.sourceforge.net/DTD/sodipodi-0.dtd" 
  xmlns:inkscape="http://www.inkscape.org/namespaces/inkscape"
  version="1.1"
  x="0px"
  y="0px"
  viewBox="0 0 24 24"
  enable-background="new 0 0 1000 1000" 
  xml:space="preserve"
  id="svg4196"
  inkscape:version="0.91 r13725"
  sodipodi:docname="linkedin.svg"
-->
<!--
  <defs id="defs4206" />
-->
  <sodipodi:namedview pagecolor="#ffffff" bordercolor="#666666" borderopacity="1" objecttolerance="10" gridtolerance="10" guidetolerance="10" inkscape:pageopacity="0" inkscape:pageshadow="2" inkscape:window-width="3841" inkscape:window-height="2111" id="namedview4204" showgrid="false" inkscape:zoom="81.041667" inkscape:cx="12" inkscape:cy="12" inkscape:window-x="0" inkscape:window-y="0" inkscape:window-maximized="0" inkscape:current-layer="svg4196" />
  <g id="g4200" transform="matrix(0.0244898,0,0,0.0244898,-0.244898,-0.244902)">
    <path d="M 917.4,10 82.3,10 C 42.4,10 10,41.6 10,80.6 l 0,838.7 c 0,39 32.4,70.7 72.3,70.7 l 835.1,0 c 40,0 72.6,-31.7 72.6,-70.7 L 990,80.6 C 990,41.6 957.4,10 917.4,10 Z m -616.7,835.1 -145.5,0 0,-467.7 145.4,0 0,467.7 z M 227.9,313.5 c -46.6,0 -84.3,-37.8 -84.3,-84.3 0,-46.5 37.7,-84.2 84.3,-84.2 46.5,0 84.2,37.8 84.2,84.2 0.1,46.5 -37.7,84.3 -84.2,84.3 z m 617.1,531.6 -145.1,0 0,-227.4 c 0,-54.3 -1.1,-124 -75.6,-124 -75.7,0 -87.2,59.1 -87.2,120.1 l 0,231.4 -145.3,0 0,-467.8 139.4,0 0,63.9 2,0 c 19.4,-36.8 66.8,-75.5 137.6,-75.5 147.1,0 174.2,96.8 174.2,222.8 l 0,256.5 0,0 z" />
  </g>
</svg>
